<?xml version="1.0" encoding="UTF-8"?>
<svg id="Layer_1" data-name="Layer 1" xmlns="http://www.w3.org/2000/svg" viewBox="0 0 477.66 499.55">
  <defs>
    <style>
      .cls-1 {
        fill: none;
        stroke: #132635;
        stroke-miterlimit: 10;
        stroke-width: 18px;
      }

      .cls-2 {
        fill: #c9a84c;
      }

      .cls-3 {
        fill: #132635;
      }
    </style>
  </defs>
  <path class="cls-3" d="M366.08,224.82v22.76l-127.25,74.08-158.42,50c-.67-.87-1.34-1.76-2-2.65-1.16-1.56-2.3-3.15-3.43-4.77-2.2-3.16-4.34-6.42-6.37-9.72-14.53-23.67-23.93-50.25-27.59-77.75l113.92-78.27,83.89-53.1,83.89,53.1,43.36,26.32Z"/>
  <path class="cls-2" d="M392.04,215.67c-2.7,2.06-5.43,4.12-8.19,6.16-5.8,4.31-11.72,8.59-17.77,12.83-13.87,9.73-28.36,19.28-43.36,28.55-7.83,4.83-15.8,9.59-23.89,14.26-1.67.96-3.34,1.92-5.01,2.87-14.37,8.18-28.87,15.92-43.36,23.15-9.65,4.82-19.3,9.43-28.9,13.78-14.61,6.63-29.11,12.7-43.36,18.15-8.42,3.23-16.76,6.23-24.98,9-1.31.44-2.62.88-3.92,1.31-15.05,4.96-29.56,9.1-43.36,12.38-10.78,2.57-21.13,4.62-30.96,6.13,1.13,1.62,2.27,3.21,3.43,4.77.66.89,1.33,1.78,2,2.65,2.05,2.68,4.16,5.3,6.33,7.85,6.24-1.13,12.64-2.44,19.2-3.94,7.48-1.7,15.15-3.66,23-5.86,2.76-.77,5.54-1.57,8.34-2.4,2.8-.83,5.62-1.69,8.46-2.58,1.18-.37,2.37-.75,3.56-1.13,3.09-.99,6.21-2.01,9.35-3.07,1.09-.37,2.18-.74,3.27-1.11,3.27-1.13,6.57-2.29,9.88-3.48h.01c1.06-.38,2.12-.77,3.19-1.16,1.06-.4,2.13-.79,3.2-1.19,2.31-.85,4.64-1.73,6.98-2.63,11.33-4.34,22.86-9.09,34.56-14.24.6-.26,1.21-.53,1.82-.79h0c1.62-.72,3.24-1.45,4.87-2.18,3.11-1.4,6.23-2.83,9.36-4.29,4.87-2.26,9.76-4.59,14.67-6.99,8.25-4.03,16.56-8.24,24.91-12.64,2.64-1.39,5.28-2.79,7.92-4.22,3.51-1.89,7.02-3.81,10.53-5.77,4.5-2.5,9-5.05,13.51-7.65,5.19-3,10.33-6.03,15.39-9.08,15.04-9.06,29.52-18.36,43.36-27.81,11.48-7.82,22.52-15.75,33.07-23.73,2.11-1.6,4.21-3.2,6.28-4.81-4.44-3.72-8.91-7.42-13.39-11.09Z"/>
  <path class="cls-1" d="M462.4,250.28c0,123.47-100.1,223.57-223.57,223.57-73.64,0-138.96-35.6-179.69-90.53-3.89-5.24-7.55-10.66-10.98-16.24-19.3-31.44-31.05-68.02-32.7-107.22-.13-3.18-.2-6.37-.2-9.58,0-5.77.22-11.49.65-17.15C24.67,117.67,121.13,26.71,238.83,26.71c25.07,0,49.18,4.13,71.68,11.74h.01c7.97,2.7,15.74,5.83,23.28,9.38,51.6,24.24,92.42,67.64,113.31,121.03,2.25,5.75,4.27,11.62,6.05,17.6,6.01,20.22,9.24,41.64,9.24,63.82Z"/>
  <path class="cls-2" d="M405.43,226.76c-2.07,1.61-4.17,3.21-6.28,4.81-5.12-3.23-10.22-6.47-15.3-9.74-42.62-27.4-84.28-56.37-125.52-85.71l-19.51-14.09c-56.83,41.14-114.99,81.41-174.51,118.42-8.84,5.5-17.75,10.88-26.76,16.13,7.77-6.96,15.62-13.79,23.57-20.51,55.28-46.79,113.47-91.14,171.97-133.88l5.73-4.19,5.71,4.19c24.34,17.88,51.04,37.56,74.8,55.92,24.44,18.84,48.81,37.92,72.71,57.56,4.48,3.67,8.95,7.37,13.39,11.09Z"/>
  <path class="cls-2" d="M366.08,127.33v71.18c-14.19-12.39-28.67-24.46-43.36-36.26v-34.92h43.36Z"/>
  <path class="cls-2" d="M322.72,198.5c17.71,10.75,28.99,17.59,43.36,26.32v30.48c-13.84,9.45-28.32,18.75-43.36,27.81v-84.61Z"/>
  <path class="cls-2" d="M221.56,238.92v97.01c-.61.26-1.22.53-1.82.79-11.7,5.15-23.23,9.9-34.56,14.24-2.34.9-4.67,1.78-6.98,2.64v-114.68h43.36Z"/>
  <path class="cls-2" d="M293.82,206v93.84c-3.51,1.96-7.02,3.88-10.53,5.77-2.64,1.43-5.28,2.83-7.92,4.22-8.35,4.4-16.66,8.61-24.91,12.64v-116.47h43.36Z"/>
  <path class="cls-2" d="M149.3,271.83v91.78c-1.19.38-2.37.75-3.56,1.12-2.84.89-5.66,1.75-8.46,2.58-2.8.83-5.58,1.63-8.34,2.4-7.85,2.2-15.52,4.16-23,5.86v-103.74h43.36Z"/>
  <path class="cls-3" d="M438.4,250.28c0,110.04-89.53,199.57-199.57,199.57-5.78,0-11.52-.24-17.2-.72h-.01c-7.53-.63-14.96-1.68-22.27-3.13-17-3.36-33.33-8.9-48.67-16.45-7.95-3.9-15.64-8.35-23.01-13.32-7.3-4.91-14.29-10.33-20.94-16.23t-.02-.02l-.02-.02s-.02-.02-.03-.03l-7.25-7.6c5.47-1.01,11.06-2.18,16.77-3.49,7.48-1.7,15.15-3.66,23-5.86,2.76-.77,5.54-1.57,8.34-2.4s5.62-1.69,8.46-2.58c1.18-.37,2.37-.75,3.56-1.13,3.09-.99,6.21-2.01,9.35-3.07,1.09-.37,2.18-.74,3.27-1.11,3.27-1.13,6.57-2.29,9.88-3.48h0c1.06-.38,2.12-.77,3.19-1.16,1.06-.4,2.13-.79,3.2-1.19,2.31-.85,4.64-1.73,6.98-2.63,11.33-4.34,22.86-9.09,34.56-14.24.6-.26,1.21-.53,1.82-.79h0c1.62-.72,3.24-1.45,4.87-2.18,3.11-1.4,6.23-2.83,9.36-4.29,4.87-2.26,9.76-4.59,14.67-6.99,8.25-4.03,16.56-8.24,24.91-12.64,2.64-1.39,5.28-2.79,7.92-4.22,3.51-1.89,7.02-3.81,10.53-5.77,4.5-2.5,9-5.05,13.51-7.65,5.19-3,10.33-6.03,15.39-9.08,15.04-9.06,29.52-18.36,43.36-27.81,11.48-7.82,22.52-15.75,33.07-23.73,2.11-1.6,4.21-3.2,6.28-4.81,7.21-5.57,14.19-11.16,20.91-16.75,1.22,8.91,1.82,17.93,1.82,27Z"/>
  <path class="cls-2" d="M397.79,296.26c-18.95,17.01-39.65,32.01-60.86,46.1-42.75,28.17-88.57,51.61-136.32,70.07-16.41,6.29-33.07,12.01-49.93,17.12-7.95-3.9-15.64-8.35-23.01-13.32,59.98-12.33,118.46-32.68,173.24-60.11,33.88-17.14,66.9-36.44,96.88-59.86Z"/>
  <path class="cls-2" d="M366.08,355.76c-18.95,17.01-39.65,32-60.86,46.1-26.75,17.62-54.71,33.4-83.59,47.27h-.01c-7.53-.63-14.96-1.68-22.27-3.13,23.81-8.86,47.15-19.02,69.85-30.39,33.88-17.14,66.9-36.44,96.88-59.85Z"/>
</svg>