<?xml version="1.0" encoding="UTF-8"?>
<svg id="Layer_1" data-name="Layer 1" xmlns="http://www.w3.org/2000/svg" viewBox="0 0 477.66 499.55">
  <defs>
    <style>
      .cls-1 {
        fill: none;
        stroke: #132635;
        stroke-miterlimit: 10;
        stroke-width: 18px;
      }

      .cls-2 {
        fill: #c9a84c;
      }

      .cls-3 {
        fill: #132635;
      }
    </style>
  </defs>
  <path class="cls-1" d="M462.4,250.28c0,123.47-100.1,223.57-223.57,223.57-73.64,0-138.96-35.6-179.69-90.53-3.89-5.24-7.55-10.66-10.98-16.24-19.3-31.44-31.05-68.02-32.7-107.22-.13-3.18-.2-6.37-.2-9.58,0-5.77.22-11.49.65-17.15C24.67,117.67,121.13,26.71,238.83,26.71c25.07,0,49.18,4.13,71.68,11.74h.01c7.97,2.7,15.74,5.83,23.28,9.38,51.6,24.24,92.42,67.64,113.31,121.03,2.25,5.75,4.27,11.62,6.05,17.6,6.01,20.22,9.24,41.64,9.24,63.82Z"/>
  <g>
    <path class="cls-3" d="M391.18,213v24.5l-136.97,79.74-170.52,53.82c-.72-.94-1.44-1.89-2.15-2.85-1.25-1.68-2.48-3.39-3.69-5.13-2.37-3.4-4.67-6.91-6.86-10.46-15.64-25.48-25.76-54.09-29.7-83.69l122.62-84.25,90.3-57.16,90.3,57.16,46.67,28.33Z"/>
    <path class="cls-2" d="M419.12,203.15c-2.91,2.22-5.84,4.43-8.82,6.63-6.24,4.64-12.62,9.25-19.13,13.81-14.93,10.47-30.53,20.75-46.67,30.73-8.43,5.2-17.01,10.32-25.71,15.35-1.8,1.03-3.6,2.07-5.39,3.09-15.47,8.8-31.08,17.14-46.67,24.92-10.39,5.19-20.77,10.15-31.11,14.83-15.73,7.14-31.33,13.67-46.67,19.54-9.06,3.48-18.04,6.71-26.89,9.69-1.41.47-2.82.95-4.22,1.41-16.2,5.34-31.82,9.8-46.67,13.33-11.6,2.77-22.74,4.97-33.32,6.6,1.22,1.74,2.44,3.46,3.69,5.13.71.96,1.43,1.92,2.15,2.85,2.21,2.88,4.48,5.7,6.81,8.45,6.72-1.22,13.61-2.63,20.67-4.24,8.05-1.83,16.31-3.94,24.76-6.31,2.97-.83,5.96-1.69,8.98-2.58,3.01-.89,6.05-1.82,9.11-2.78,1.27-.4,2.55-.81,3.83-1.22,3.33-1.07,6.68-2.16,10.06-3.3,1.17-.4,2.35-.8,3.52-1.19,3.52-1.22,7.07-2.46,10.63-3.75h.01c1.14-.41,2.28-.83,3.43-1.25,1.14-.43,2.29-.85,3.44-1.28,2.49-.91,4.99-1.86,7.51-2.83,12.2-4.67,24.61-9.78,37.2-15.33.65-.28,1.3-.57,1.96-.85h0c1.74-.77,3.49-1.56,5.24-2.35,3.35-1.51,6.71-3.05,10.08-4.62,5.24-2.43,10.51-4.94,15.79-7.52,8.88-4.34,17.83-8.87,26.81-13.61,2.84-1.5,5.68-3,8.53-4.54,3.78-2.03,7.56-4.1,11.33-6.21,4.84-2.69,9.69-5.44,14.54-8.23,5.59-3.23,11.12-6.49,16.57-9.77,16.19-9.75,31.77-19.76,46.67-29.93,12.36-8.42,24.24-16.95,35.6-25.54,2.27-1.72,4.53-3.44,6.76-5.18-4.78-4-9.59-7.99-14.41-11.94Z"/>
    <path class="cls-2" d="M433.53,215.09c-2.23,1.73-4.49,3.46-6.76,5.18-5.51-3.48-11-6.96-16.47-10.48-45.88-29.49-90.72-60.68-135.11-92.26l-21-15.17c-61.17,44.28-123.77,87.63-187.84,127.47-9.52,5.92-19.11,11.71-28.8,17.36,8.36-7.49,16.81-14.84,25.37-22.08,59.5-50.36,122.14-98.1,185.11-144.11l6.17-4.51,6.15,4.51c26.2,19.25,54.94,40.43,80.51,60.19,26.31,20.28,52.54,40.82,78.26,61.96,4.82,3.95,9.63,7.93,14.41,11.94Z"/>
    <path class="cls-2" d="M391.18,108.06v76.62c-15.27-13.34-30.86-26.33-46.67-39.03v-37.59h46.67Z"/>
    <path class="cls-2" d="M344.5,184.67c19.07,11.57,31.2,18.94,46.67,28.33v32.81c-14.9,10.17-30.48,20.18-46.67,29.93v-91.07Z"/>
    <path class="cls-2" d="M235.62,228.18v104.42c-.66.28-1.31.57-1.96.85-12.59,5.54-25,10.66-37.2,15.33-2.52.97-5.03,1.92-7.51,2.84v-123.44h46.67Z"/>
    <path class="cls-2" d="M313.4,192.74v101.01c-3.78,2.11-7.56,4.18-11.33,6.21-2.84,1.54-5.68,3.05-8.53,4.54-8.99,4.74-17.93,9.27-26.81,13.61v-125.37h46.67Z"/>
    <path class="cls-2" d="M157.84,263.6v98.79c-1.28.41-2.55.81-3.83,1.21-3.06.96-6.09,1.88-9.11,2.78-3.01.89-6.01,1.75-8.98,2.58-8.45,2.37-16.71,4.48-24.76,6.31v-111.66h46.67Z"/>
  </g>
  <g>
    <path class="cls-3" d="M438.4,250.28c0,110.04-89.53,199.57-199.57,199.57-5.78,0-11.52-.24-17.2-.72h-.01c-7.53-.63-14.96-1.68-22.27-3.13-17-3.36-33.33-8.9-48.67-16.45-7.95-3.9-15.64-8.35-23.01-13.32-7.3-4.91-14.29-10.33-20.94-16.23t-.02-.02l-.02-.02s-.02-.02-.03-.03l-7.25-7.6c5.47-1.01,11.06-2.18,16.77-3.49,7.48-1.7,15.15-3.66,23-5.86,2.76-.77,5.54-1.57,8.34-2.4s5.62-1.69,8.46-2.58c1.18-.37,2.37-.75,3.56-1.13,3.09-.99,6.21-2.01,9.35-3.07,1.09-.37,2.18-.74,3.27-1.11,3.27-1.13,6.57-2.29,9.88-3.48h0c1.06-.38,2.12-.77,3.19-1.16,1.06-.4,2.13-.79,3.2-1.19,2.31-.85,4.64-1.73,6.98-2.63,11.33-4.34,22.86-9.09,34.56-14.24.6-.26,1.21-.53,1.82-.79h0c1.62-.72,3.24-1.45,4.87-2.18,3.11-1.4,6.23-2.83,9.36-4.29,4.87-2.26,9.76-4.59,14.67-6.99,8.25-4.03,16.56-8.24,24.91-12.64,2.64-1.39,5.28-2.79,7.92-4.22,3.51-1.89,7.02-3.81,10.53-5.77,4.5-2.5,9-5.05,13.51-7.65,5.19-3,10.33-6.03,15.39-9.08,15.04-9.06,29.52-18.36,43.36-27.81,11.48-7.82,22.52-15.75,33.07-23.73,2.11-1.6,4.21-3.2,6.28-4.81,7.21-5.57,14.19-11.16,20.91-16.75,1.22,8.91,1.82,17.93,1.82,27Z"/>
    <path class="cls-2" d="M397.79,296.26c-18.95,17.01-39.65,32.01-60.86,46.1-42.75,28.17-88.57,51.61-136.32,70.07-16.41,6.29-33.07,12.01-49.93,17.12-7.95-3.9-15.64-8.35-23.01-13.32,59.98-12.33,118.46-32.68,173.24-60.11,33.88-17.14,66.9-36.44,96.88-59.86Z"/>
    <path class="cls-2" d="M366.08,355.76c-18.95,17.01-39.65,32-60.86,46.1-26.75,17.62-54.71,33.4-83.59,47.27h-.01c-7.53-.63-14.96-1.68-22.27-3.13,23.81-8.86,47.15-19.02,69.85-30.39,33.88-17.14,66.9-36.44,96.88-59.85Z"/>
  </g>
</svg>